# xmcd
# 
# Track frame offsets:
#     182
#     11232
#     23650
#     35252
#     49795
#     66610
#     82687
#     92445
#     109145
#     119657
#     130587
#     148145
#     163630
#     175395
# 
# Disc length: 2510
# 
# Revision: 1
# Processed by: cddbd v1.5.2PL0 Copyright (c) Steve Scherf et al.
# Submitted via: fre:ac v1.0.31
# 
DISCID=b909cc0e
DTITLE=Roots of Rhythm - Merry Christmas, Baby
DYEAR=1999
DGENRE=Christmas
TTITLE0=Jackson 5 - Santa Claus Is Coming to Town
TTITLE1=Carla Thomas - Gee Whiz, It's Christmas
TTITLE2=Otis Redding - Merry Christmas, Baby
TTITLE3=Solomon Burke - Presents For Christmas
TTITLE4=The Stylistics - Silver Bells
TTITLE5=Donny Hathaway - This Christmas
TTITLE6=Clarence Carter - Back Door Santa
TTITLE7=Lou Rawls - Have Yourself a Merry Little Christmas
TTITLE8=Mabel Scott - Boogie Woogie Santa Claus
TTITLE9=Charles Brown - Christmas (Comes But Once a Year)
TTITLE10=Albert King - Santa Claus Wants Some Lovin'
TTITLE11=Eartha Kitt - Santa Baby
TTITLE12=Pearl Bailey - Five Pound Box Of Money
TTITLE13=Louis Armstrong - Zat You, Santa Clause?
EXTD=
EXTT0=
EXTT1=
EXTT2=
EXTT3=
EXTT4=
EXTT5=
EXTT6=
EXTT7=
EXTT8=
EXTT9=
EXTT10=
EXTT11=
EXTT12=
EXTT13=
PLAYORDER=
